<svg width="501" height="164" viewBox="0 0 501 164" fill="none" xmlns="http://www.w3.org/2000/svg">
<rect width="501" height="164" fill="#1E68F4"/>
<path d="M278 102V125H257.5V63.5H278V85V85.5H278.5H308.5H309V85V63.5H328.5V125H309V102V101.5H308.5H278.5H278V102ZM230.641 62.5L251.803 125H228.384L226.483 117.871L226.384 117.5H226H203H202.616L202.517 117.871L200.616 125H177.692L198.361 62.5H230.641ZM214.98 79.3596L214.519 77.7854L214.023 79.3489L207.523 99.8489L207.317 100.5H208H220.5H221.167L220.98 99.8596L214.98 79.3596ZM120.9 99.3L135.507 79.8246L150.605 99.3063L151.251 100.14L151.487 99.1119L159.898 62.5H181.392L169.089 125H148.738L135.888 109.185L135.467 108.666L135.088 109.217L124.237 125H102.408L89.6127 62.5H111.602L120.013 99.1119L120.254 100.162L120.9 99.3ZM393.127 70.8726C399.129 76.8737 402.5 85.0131 402.5 93.5C402.5 101.987 399.129 110.126 393.127 116.127C387.126 122.129 378.987 125.5 370.5 125.5C362.013 125.5 353.874 122.129 347.873 116.127C341.871 110.126 338.5 101.987 338.5 93.5C338.5 85.0131 341.871 76.8737 347.873 70.8726C353.874 64.8714 362.013 61.5 370.5 61.5C378.987 61.5 387.126 64.8714 393.127 70.8726ZM362.261 85.2612C360.076 87.4463 358.849 90.4099 358.849 93.5C358.849 96.5901 360.076 99.5537 362.261 101.739C364.446 103.924 367.41 105.151 370.5 105.151C373.59 105.151 376.554 103.924 378.739 101.739C380.924 99.5537 382.151 96.5901 382.151 93.5C382.151 90.4099 380.924 87.4463 378.739 85.2612C376.554 83.0762 373.59 81.8486 370.5 81.8486C367.41 81.8486 364.446 83.0762 362.261 85.2612ZM464.127 71.8726C470.129 77.8737 473.5 86.0131 473.5 94.5C473.5 102.987 470.129 111.126 464.127 117.127C458.126 123.129 449.987 126.5 441.5 126.5C433.013 126.5 424.874 123.129 418.873 117.127C412.871 111.126 409.5 102.987 409.5 94.5C409.5 86.0131 412.871 77.8737 418.873 71.8726C424.874 65.8714 433.013 62.5 441.5 62.5C449.987 62.5 458.126 65.8714 464.127 71.8726ZM433.261 86.2612C431.076 88.4463 429.849 91.4099 429.849 94.5C429.849 97.5901 431.076 100.554 433.261 102.739C435.446 104.924 438.41 106.151 441.5 106.151C444.59 106.151 447.554 104.924 449.739 102.739C451.924 100.554 453.151 97.5901 453.151 94.5C453.151 91.4099 451.924 88.4463 449.739 86.2612C447.554 84.0762 444.59 82.8486 441.5 82.8486C438.41 82.8486 435.446 84.0762 433.261 86.2612Z" fill="#FCF941" stroke="#FCF941"/>
<path d="M27 49.1986C27 49.1986 30.9019 50.508 33.5 50.6986C36.0391 50.885 40 50.1986 40 50.1986C40 50.1986 45.0312 47.726 46 44.6986C46.5951 42.8389 47.1349 41.2875 46 39.6986C44.6193 37.7656 42.0822 37.5553 40 38.6986C38.0864 39.7494 37.7627 41.5314 37.5 43.6986C37.1507 46.5803 40 50.6986 40 50.6986C40 50.6986 43.5203 56.0141 47 57.6986C49.5164 58.9168 54 59.1986 54 59.1986C54 59.1986 57.6719 59.4641 60 59.1986C63.0118 58.8552 64.8403 58.6528 67.5 57.1986C70.6498 55.4765 74 50.6986 74 50.6986C74 50.6986 76.0297 48.1532 76.5 46.1986C76.9112 44.49 77.1404 43.3352 76.5 41.6986C75.9443 40.2784 75.2967 39.5013 74 38.6986C71.8417 37.3625 67.5 38.6986 67.5 38.6986C67.5 38.6986 64.218 39.8516 62.5 41.1986C60.5322 42.7416 59.6363 43.9711 58.5 46.1986C57.6583 47.8488 57.3536 48.8803 57 50.6986C56.4782 53.382 57 57.6986 57 57.6986C57 57.6986 57.6359 61.4432 58.5 63.6986C60.3029 68.4042 66 74.1986 66 74.1986" stroke="#EE2312" stroke-width="5" stroke-linecap="round"/>
</svg>
