<svg version="1.1" id="Layer_1" xmlns="http://www.w3.org/2000/svg" xmlns:xlink="http://www.w3.org/1999/xlink" x="0px" y="0px"
	 width="100%" viewBox="0 0 500 500" enable-background="new 0 0 500 500" xml:space="preserve">
<path fill="#0B1F34" opacity="1.000000" stroke="none" 
	d="
M332.000000,501.000000 
	C221.333359,501.000000 111.166718,501.000000 1.000059,501.000000 
	C1.000039,334.333405 1.000039,167.666794 1.000020,1.000149 
	C167.666565,1.000099 334.333130,1.000099 500.999756,1.000050 
	C500.999847,167.666519 500.999847,334.333038 500.999939,500.999786 
	C444.833344,501.000000 388.666656,501.000000 332.000000,501.000000 
M364.833710,398.104736 
	C362.882690,395.085693 361.506226,391.390991 358.884064,389.161163 
	C345.435364,377.724640 334.029785,364.557678 324.504089,349.771362 
	C316.583923,337.477203 310.233185,324.394073 305.620056,310.133423 
	C307.668854,309.685364 309.270233,309.308014 310.882782,308.986511 
	C338.623322,303.455597 363.942169,292.550934 385.599701,274.158417 
	C410.417267,253.082230 428.880554,227.603073 436.427155,195.416107 
	C444.599518,160.560059 422.395172,130.488586 387.680481,129.042450 
	C357.236633,127.774223 330.758667,137.929123 308.314819,158.282959 
	C276.302490,187.314224 265.213928,224.396835 267.685852,266.463013 
	C267.992401,271.680084 268.574921,276.880981 269.032440,282.122070 
	C240.875015,281.898407 200.029556,261.387634 180.831711,235.813141 
	C183.533875,233.946503 186.318893,232.196762 188.914978,230.201248 
	C206.785995,216.464417 219.910156,199.582596 223.523590,176.672058 
	C227.830948,149.361710 202.381439,123.591217 175.081787,127.862389 
	C155.054489,130.995773 141.192245,142.943939 132.894104,160.887466 
	C124.647980,178.718491 127.121521,196.941238 133.430496,214.884567 
	C133.941101,216.336761 134.498566,217.772476 135.169083,219.579147 
	C132.691727,219.755295 131.036865,219.881256 129.380859,219.989426 
	C112.736183,221.076721 96.975014,217.984390 82.015701,210.467377 
	C73.400536,206.138275 65.709892,209.772507 62.926548,219.015350 
	C60.507103,227.049759 63.389557,233.938293 71.034576,237.751923 
	C95.301971,249.857559 120.787880,253.008453 147.282639,247.534134 
	C150.467194,246.876160 152.067398,247.588516 153.941666,249.968765 
	C168.131683,267.989655 185.120667,282.766968 205.501556,293.433075 
	C225.372650,303.832428 246.529999,309.874847 268.950836,311.022675 
	C274.237244,311.293304 276.732910,312.970123 278.688354,318.333893 
	C283.058685,330.321564 288.165039,342.130432 294.029053,353.465057 
	C305.773163,376.165375 321.333435,396.029510 340.987152,412.523499 
	C348.859772,419.130524 358.414795,417.272705 362.975647,408.031372 
	C364.308655,405.330475 364.318573,401.976624 364.833710,398.104736 
z"/>
<path fill="#F8EE2F" opacity="1.000000" stroke="none" 
	d="
M364.884338,398.513367 
	C364.318573,401.976624 364.308655,405.330475 362.975647,408.031372 
	C358.414795,417.272705 348.859772,419.130524 340.987152,412.523499 
	C321.333435,396.029510 305.773163,376.165375 294.029053,353.465057 
	C288.165039,342.130432 283.058685,330.321564 278.688354,318.333893 
	C276.732910,312.970123 274.237244,311.293304 268.950836,311.022675 
	C246.529999,309.874847 225.372650,303.832428 205.501556,293.433075 
	C185.120667,282.766968 168.131683,267.989655 153.941666,249.968765 
	C152.067398,247.588516 150.467194,246.876160 147.282639,247.534134 
	C120.787880,253.008453 95.301971,249.857559 71.034576,237.751923 
	C63.389557,233.938293 60.507103,227.049759 62.926548,219.015350 
	C65.709892,209.772507 73.400536,206.138275 82.015701,210.467377 
	C96.975014,217.984390 112.736183,221.076721 129.380859,219.989426 
	C131.036865,219.881256 132.691727,219.755295 135.169083,219.579147 
	C134.498566,217.772476 133.941101,216.336761 133.430496,214.884567 
	C127.121521,196.941238 124.647980,178.718491 132.894104,160.887466 
	C141.192245,142.943939 155.054489,130.995773 175.081787,127.862389 
	C202.381439,123.591217 227.830948,149.361710 223.523590,176.672058 
	C219.910156,199.582596 206.785995,216.464417 188.914978,230.201248 
	C186.318893,232.196762 183.533875,233.946503 180.831711,235.813141 
	C200.029556,261.387634 240.875015,281.898407 269.032440,282.122070 
	C268.574921,276.880981 267.992401,271.680084 267.685852,266.463013 
	C265.213928,224.396835 276.302490,187.314224 308.314819,158.282959 
	C330.758667,137.929123 357.236633,127.774223 387.680481,129.042450 
	C422.395172,130.488586 444.599518,160.560059 436.427155,195.416107 
	C428.880554,227.603073 410.417267,253.082230 385.599701,274.158417 
	C363.942169,292.550934 338.623322,303.455597 310.882782,308.986511 
	C309.270233,309.308014 307.668854,309.685364 305.620056,310.133423 
	C310.233185,324.394073 316.583923,337.477203 324.504089,349.771362 
	C334.029785,364.557678 345.435364,377.724640 358.884064,389.161163 
	C361.506226,391.390991 362.882690,395.085693 364.884338,398.513367 
M372.820099,158.987473 
	C355.019257,161.225967 339.799896,168.769669 327.178833,181.463501 
	C309.124359,199.622116 300.521729,222.053085 298.053650,247.120453 
	C296.911743,258.718567 297.062439,270.311005 299.228668,282.056000 
	C329.857697,277.215393 355.736847,263.972168 377.088409,242.067871 
	C391.740784,227.036224 402.530121,209.612473 407.466400,189.042191 
	C411.568512,171.948151 403.246124,160.620590 385.711761,158.905106 
	C381.765533,158.519028 377.743774,158.905365 372.820099,158.987473 
M189.370163,161.030731 
	C181.207932,153.520233 166.817627,159.230423 161.432007,168.833191 
	C153.507202,182.963470 156.982712,196.644318 163.587753,210.918610 
	C176.728989,204.228348 187.317978,195.614853 192.639526,181.878220 
	C195.363556,174.846603 194.624802,167.827606 189.370163,161.030731 
z"/>
<path fill="#0C2034" opacity="1.000000" stroke="none" 
	d="
M373.288452,158.961792 
	C377.743774,158.905365 381.765533,158.519028 385.711761,158.905106 
	C403.246124,160.620590 411.568512,171.948151 407.466400,189.042191 
	C402.530121,209.612473 391.740784,227.036224 377.088409,242.067871 
	C355.736847,263.972168 329.857697,277.215393 299.228668,282.056000 
	C297.062439,270.311005 296.911743,258.718567 298.053650,247.120453 
	C300.521729,222.053085 309.124359,199.622116 327.178833,181.463501 
	C339.799896,168.769669 355.019257,161.225967 373.288452,158.961792 
z"/>
<path fill="#0D2134" opacity="1.000000" stroke="none" 
	d="
M189.638092,161.301056 
	C194.624802,167.827606 195.363556,174.846603 192.639526,181.878220 
	C187.317978,195.614853 176.728989,204.228348 163.587753,210.918610 
	C156.982712,196.644318 153.507202,182.963470 161.432007,168.833191 
	C166.817627,159.230423 181.207932,153.520233 189.638092,161.301056 
z"/>
</svg>